# xmcd
#
# Track frame offsets: 
#        150
#        10775
#        22192
#        35860
#        53497
#        70275
#        88507
#        110805
#        124530
#        140595
#        157307
#        169355
#        182157
#        199787
#        213387
#        232105
#        250532
#        254967
#        303065
#        318587
#
# Disc length: 4741 seconds
#
# Revision: 8
# Processed by: cddbd v1.5.2PL0 Copyright (c) Steve Scherf et al.
# Submitted via: ExactAudioCopyFreeDBPlugin 1.0
#
DISCID=2c128314
DTITLE=Booker T. and the M.G.'s - Time is Tight [Stax box set]
DYEAR=1998
DGENRE=Soul
TTITLE0=Soul Limbo
TTITLE1=Heads or Tails
TTITLE2=Be Young, Be Foolish, Be Happy
TTITLE3=Hang 'Em High
TTITLE4=Willow Weep for Me
TTITLE5=Over Easy
TTITLE6=Time is Tight
TTITLE7=Johnny, I Love You
TTITLE8=Lady Madonna
TTITLE9=Mrs. Robinson
TTITLE10=Soul Clap '69
TTITLE11=I've Never Found a Girl (To Love Me Like You Do)
TTITLE12=You're All I Need to Get By
TTITLE13=It's Your Thing
TTITLE14=Something
TTITLE15=Sunday Sermon
TTITLE16=McLemore Avenue
TTITLE17=Beatles Medley:  Sun King - Mean Mr. Mustard - Polythene Pam 
TTITLE17=She Came in Through the Bathroom Window - I Want You (She's
TTITLE17=So Heavy)
TTITLE18=Chicken Pox
TTITLE19=Melting Pot
EXTD=BOOKER T. and THE MG's "Time Is Tight" (3 CD-Set]\n1962 - 1993\nLab
EXTD=el: Stax Records\nStax 3SCD-4424-2\nAll tracks digitally remaster
EXTD=ed
EXTT0=
EXTT1=
EXTT2=
EXTT3=
EXTT4=
EXTT5=
EXTT6=
EXTT7=
EXTT8=
EXTT9=
EXTT10=
EXTT11=
EXTT12=
EXTT13=
EXTT14=
EXTT15=
EXTT16=
EXTT17=Beatles Medley :-\nSun King\nMean Mr. Mustard\nPolythene Pam\nS
EXTT17=he Came in through the Bathroom Window\nI Want You (She's So He
EXTT17=avy)
EXTT18=
EXTT19=
PLAYORDER=
